<svg xmlns="http://www.w3.org/2000/svg" viewBox="0 0 1920 757"><title>Design 02</title><g id="Layer_1" data-name="Layer 1"><path d="M457.92,514.62c-62.15,51.51-129.2,72-218.33,72H0V-3H239.59C321.36-3,395,21.53,457.92,69.78c72,55.6,108.76,130.83,108.76,223.23C566.68,381.33,525,458.19,457.92,514.62ZM175.17,157.27V428.76C294.38,428.76,359.8,401,362.25,293,362.25,203.07,302.56,157.27,175.17,157.27Z"/><path d="M1437.61,586.57V-2.18H1920V155.64H1630.6v76.53h220.17V374H1630.6v212.6Z"/><path d="M9.32,637.6H34.81c36.05,0,55.47,22.69,55.47,58.11,0,54.07-34,59-53.3,59H9.32ZM41,726.48C55.47,726.32,58,708.3,58,697.27c0-12.75-2.49-30.46-16.94-30.46Z"/><path d="M181.18,637.6h58.89v27.66H212.88v16.31h24.39v27.66H212.88V727.1h27.19v27.66H181.18Z"/><path d="M331.44,715.29c4.35,6.53,12,13.05,20.05,13.05,4.35,0,9.32-2.64,9.32-7.77a9.14,9.14,0,0,0-2.49-6.52,25,25,0,0,0-5.28-4.51c-6.21-4.81-11.65-9.32-15.69-14.92a33.87,33.87,0,0,1-6.37-20.5c0-13.68,8.7-38.54,35.73-38.54a49.74,49.74,0,0,1,22.54,5.9v35.59c-3.73-5.91-11.35-12.59-18.65-12.59-3.73,0-8.24,2.64-8.24,7.15,0,2.49,1.4,4.66,3.11,6.52a52.12,52.12,0,0,0,5.75,4.82c6.68,4.66,12,9,15.54,14.3,3.73,5.28,5.75,11.49,5.75,20.35,0,21.76-15.23,39.16-37.29,39.16A62.48,62.48,0,0,1,331.44,752Z"/><path d="M483.41,754.76V637.6h31.7V754.76Z"/><path d="M693.81,687l.15,5c0,28.9-5.59,64.8-42.27,64.8-34.49,0-45.68-30.3-45.68-60,0-29.06,11-61.22,45.37-61.22,19,0,33.1,12,39.94,28.9l-30.61,11.35c-.31-4.67-3.42-12-9-12-14.6,0-13.36,26.88-13.36,35.74.47,8.39-.15,28.9,12.12,28.9,8.39,0,11-9.94,10.88-16.78H649.68V687Z"/><path d="M783.62,637.6h30.14l25.33,70.54.31-.31c-1.24-13.51-3.57-26.88-3.57-40.4V637.6h30.45V754.76H835.83l-23.62-67.59-.31.31c.78,11,2.18,21.91,2.18,32.94v34.34H783.62Z"/><path d="M1164.63,637.6h39L1215,754.76H1182l-3-73.65h-.31l-20.27,73.65h-25.8l-3.81-73.65h-.31l-22,73.65h-33.68l37.66-117.16h34l6.8,62.31Z"/><path d="M1320,754.76V705l-28.9-67.44h32.94l10.88,36.2h.31l11-36.2h32.79L1351.72,705v49.72Z"/><path d="M1581.54,754.76V637.6h55.94v27.66h-24.24V682.2h22.68v27.65h-22.68v44.91Z"/><path d="M1728.85,754.76V637.6h31.7V754.76Z"/><path d="M1863.41,754.76V666.19H1846V637.6h67.28v28.59h-18.18v88.57Z"/><path d="M1044,0H1256.2L1313,586.56H1131.16l-14.78-368.75h-1.56L967,755l13-168-95.81-.44L865.11,217.81h-1.56l-110,368.75H584.93L773.48,0h170.2l34.06,312Z"/></g></svg>