<svg id="Layer_1" data-name="Layer 1" xmlns="http://www.w3.org/2000/svg" xmlns:xlink="http://www.w3.org/1999/xlink" viewBox="0 0 1162 520"><defs><style>.cls-1{mask:url(#mask);}.cls-2{filter:url(#luminosity-noclip);}</style><filter id="luminosity-noclip" x="-0.02" y="0" width="1162.02" height="420.62" filterUnits="userSpaceOnUse" color-interpolation-filters="sRGB"><feFlood flood-color="#fff" result="bg"/><feBlend in="SourceGraphic" in2="bg"/></filter><mask id="mask" x="-0.02" y="0" width="1162.02" height="420.62" maskUnits="userSpaceOnUse"><g class="cls-2"><polygon points="313 419.62 295.49 418.87 430.71 0 448.49 0 313 419.62"/><polygon points="763 420.62 746.38 418.87 881.59 0 899.37 0 763 420.62"/></g></mask></defs><title>DesignMyFit_logo_black</title><path d="M0,441.89H16.56c23.37,0,36,14.71,36,37.67,0,35.06-22.06,38.28-34.55,38.28H0Zm20.55,57.62c9.37-.1,11-11.79,11-18.94,0-8.26-1.61-19.74-11-19.74Z"/><path d="M105.39,441.89h38.18v17.93H125.94V470.4h15.81v17.93H125.94v11.58h17.63v17.93H105.39Z"/><path d="M196.74,492.26c2.82,4.23,7.76,8.46,13,8.46,2.82,0,6-1.72,6-5a6,6,0,0,0-1.61-4.23,16.5,16.5,0,0,0-3.43-2.92c-4-3.12-7.55-6-10.17-9.67a22,22,0,0,1-4.13-13.3c0-8.86,5.64-25,23.17-25a32.27,32.27,0,0,1,14.6,3.83v23.07c-2.42-3.83-7.35-8.16-12.09-8.16-2.41,0-5.33,1.71-5.33,4.63a6.44,6.44,0,0,0,2,4.23,34.4,34.4,0,0,0,3.73,3.13c4.33,3,7.75,5.84,10.07,9.26s3.73,7.45,3.73,13.2c0,14.1-9.87,25.38-24.18,25.38A40.63,40.63,0,0,1,196.74,516Z"/><path d="M289.2,517.84v-76h20.55v76Z"/><path d="M419.53,473.92l.1,3.23c0,18.73-3.62,42-27.4,42-22.36,0-29.61-19.64-29.61-38.88,0-18.84,7.15-39.69,29.41-39.69,12.29,0,21.46,7.76,25.89,18.74l-19.84,7.35c-.2-3-2.22-7.75-5.85-7.75-9.46,0-8.66,17.42-8.66,23.16.3,5.44-.1,18.74,7.86,18.74,5.44,0,7.15-6.45,7.05-10.88h-7.55v-16Z"/><path d="M471.7,441.89h19.54l16.42,45.73.2-.2c-.81-8.76-2.32-17.42-2.32-26.19V441.89h19.74v76H505.54L490.23,474l-.2.21c.5,7.15,1.41,14.2,1.41,21.35v22.26H471.7Z"/><path d="M708,517.84l-1.91-47.74h-.2c-.91,5.54-1.61,11.08-2.62,16.62l-5.84,31.12H680.69l-7.15-47.74h-.21c-.1,5.64,0,11.18-.3,16.82l-1.71,30.92H649.26l8.86-76h25.59l5.84,40.39h.2c.61-4.73,1.11-9.36,2-14.1l4.93-26.29H722l7.36,76Z"/><path d="M793.39,517.84V485.61l-18.74-43.72H796l7,23.47h.2l7.15-23.47h21.25l-17.72,43.72v32.23Z"/><path d="M954.83,517.84v-76H991.1v17.93H975.38v11h14.71v17.93H975.38v29.11Z"/><path d="M1046.29,517.84v-76h20.54v76Z"/><path d="M1129.48,517.84V460.43H1118.2V441.89h43.61v18.54H1150v57.41Z"/><g class="cls-1"><path d="M322.28,365.59c-43.85,36.35-91.15,50.77-154,50.77H0L0,0H168c57.94.39,109.86,17.69,154.28,51.73C373,91,399,144.07,399,209.26,399,271.56,369.58,325.79,322.28,365.59ZM122.8,113.5V305c84.1,0,130.25-19.61,132-95.76C254.78,145.8,212.67,113.5,122.8,113.5Z"/><path d="M662.08,0H786.81l39.51,416.81H694.59V156.67h0l-83.17,260-20,.46-75.16-.31V156.67h0L431.63,416.81H312.69L446.73,0H568l21.83,223.08Z"/><path d="M764.31,416.5,898.37,0H1162l-37.83,113.11H983.65l-16,54h136.27l-34.07,100H934.55l-49.2,150.15Z"/></g></svg>