<svg id="Layer_1" data-name="Layer 1" xmlns="http://www.w3.org/2000/svg" xmlns:xlink="http://www.w3.org/1999/xlink" viewBox="0 0 200 200"><defs><style>.cls-1{fill:url(#Black_Gradient_Swatch);}.cls-2{fill:#fff;}</style><linearGradient id="Black_Gradient_Swatch" x1="200" y1="200" x2="0" gradientUnits="userSpaceOnUse"><stop offset="0.39"/><stop offset="1" stop-color="#1f1f1f"/></linearGradient></defs><title>Q4 - Muscle</title><rect class="cls-1" width="200" height="200"/><path class="cls-2" d="M118,115.58a32.75,32.75,0,0,1,21-5.25c6.24.56,11.71,2.89,15.94,7.68a23.56,23.56,0,0,1,5.44,11.87,31.76,31.76,0,0,1-.5,14.38C158,151,153.5,155.45,147,157.86c-5.82,2.14-11.83,2.35-17.91,1.65a43.31,43.31,0,0,1-14.79-4.24,2.11,2.11,0,0,0-1.22-.15,96.86,96.86,0,0,1-21.72.79,112.56,112.56,0,0,1-24.38-4c-6.56-1.91-12.83-4.45-18.38-8.54a29.09,29.09,0,0,1-7-7.14A13.45,13.45,0,0,1,40.14,123c5.65-13.36,12.15-26.29,21-37.87a82.44,82.44,0,0,1,7.31-8.21A285.25,285.25,0,0,0,95.38,46.45c.23-.31.47-.63.68-1,2.91-4.33,6.92-6.06,12.06-5.13a49.6,49.6,0,0,1,13.2,4.1,17.48,17.48,0,0,1,3.43,2.31,1.87,1.87,0,0,1,.4,2.85c-1.13,1.67-2.41,3.24-3.65,4.84-.48.62-1,1.2-1.49,1.82s-.4,1,.38,1.26,1.37.39,2,.61a2.62,2.62,0,0,1,1.87,3.51,4,4,0,0,1-2.39,2.84,16.19,16.19,0,0,1-5.08,1.43A99.52,99.52,0,0,0,101.73,68a44.46,44.46,0,0,1-5.39.73,5.82,5.82,0,0,0-4.25,1.93,37,37,0,0,0-4,5.38,82.88,82.88,0,0,0-7.67,20.07c-1.75,6.56-3.34,13.16-5,19.74a1.64,1.64,0,0,0,.5,1.91c.7.53,1.32.2,2-.21,4.84-3.16,10-5.78,15.73-6.55,6.75-.89,13.23,0,18.88,4.17a19.46,19.46,0,0,1,5.66,7.26,2.51,2.51,0,0,0,1.4,1.25,2,2,0,0,0,1.65-.57,1.82,1.82,0,0,0,.22-1.63C120.37,119.52,119.19,117.63,118,115.58Z"/></svg>