<svg id="Layer_1" data-name="Layer 1" xmlns="http://www.w3.org/2000/svg" xmlns:xlink="http://www.w3.org/1999/xlink" viewBox="0 0 200 200"><defs><style>.cls-1{fill:url(#Black_Gradient_Swatch);}.cls-2{fill:#fff;stroke:#fff;stroke-miterlimit:10;stroke-width:6px;}</style><linearGradient id="Black_Gradient_Swatch" x1="200" y1="200" x2="0" gradientUnits="userSpaceOnUse"><stop offset="0.39"/><stop offset="1" stop-color="#1f1f1f"/></linearGradient></defs><title>Q1 - Male</title><rect class="cls-1" width="200" height="200"/><path class="cls-2" d="M118.94,78.14,148.4,48.69h-20c-.27,0-.55,0-.82,0-1.68,0-2.58-.65-2.58-1.85s.9-1.86,2.57-1.86h24.88c2,0,2.56.56,2.56,2.59q0,12.45,0,24.88a5.82,5.82,0,0,1-.06,1A1.77,1.77,0,0,1,153.2,75a1.81,1.81,0,0,1-1.85-1.47,7.37,7.37,0,0,1-.07-1.24V51.76L121.92,81.12c9.87,11.47,13.56,24.88,10.15,40a42.55,42.55,0,0,1-17.84,26.14C96,160,70.5,156.74,56.05,140.22a44.5,44.5,0,0,1,.42-59.17C72.65,63.26,100.93,61.52,118.94,78.14ZM89.08,151.33a40.49,40.49,0,1,0-40.4-40.47A40.43,40.43,0,0,0,89.08,151.33Z"/></svg>