<svg id="Layer_1" data-name="Layer 1" xmlns="http://www.w3.org/2000/svg" xmlns:xlink="http://www.w3.org/1999/xlink" viewBox="0 0 200 200"><defs><style>.cls-1{fill:url(#Black_Gradient_Swatch);}.cls-2,.cls-3{fill:#fff;}.cls-2{stroke:#fff;stroke-miterlimit:10;stroke-width:2px;}</style><linearGradient id="Black_Gradient_Swatch" x1="200" y1="200" x2="0" gradientUnits="userSpaceOnUse"><stop offset="0.39"/><stop offset="1" stop-color="#1f1f1f"/></linearGradient></defs><title>Q1 - Female B</title><rect class="cls-1" width="200" height="200"/><path class="cls-2" d="M154.23,155.46v11.68h9.53a2.93,2.93,0,0,1,.84.09,1.08,1.08,0,0,1,.78,1.22,1.05,1.05,0,0,1-1,1c-.55.05-1.1,0-1.65,0h-8.49c0,.27,0,.5,0,.73v8.35c0,.89-.46,1.43-1.2,1.42s-1.16-.55-1.17-1.44V169.5H142a1.28,1.28,0,0,1-1.24-.58,1.19,1.19,0,0,1,1.1-1.79c1.42,0,2.85,0,4.27,0h5.62V155.49c-8.08-.72-14.36-4.45-18.49-11.5a21.69,21.69,0,0,1-2.5-16,22.73,22.73,0,1,1,23.43,27.51ZM153,153.11a20.37,20.37,0,1,0-20.35-20.41A20.43,20.43,0,0,0,153,153.11Z"/><path class="cls-3" d="M61.87,78.6a17.45,17.45,0,0,1-1.75-2c-.59-1-1-2-2.35-2.11-.23,0-.51-.44-.6-.73-.69-2.1-1.31-4.22-2-6.31A3.36,3.36,0,0,1,55.59,64a36.86,36.86,0,0,1,3.08-3.74,8.27,8.27,0,0,1,11-.13,1.2,1.2,0,0,0,1.54.24c2.28-1,3.54-.44,5.11,2.26,1,1.72.59,3.31-1.07,4.71A8.09,8.09,0,0,0,74,69.13l.34.31c2.21-1.63,4.35-3.36,6.64-4.86a15.61,15.61,0,0,1,5-2.48c5.57-1.24,9.95-4.45,14.27-7.88A23.41,23.41,0,0,1,105,51.08a69.8,69.8,0,0,0,11.51-6.83,6.36,6.36,0,0,0,.93-.87,6.85,6.85,0,0,0,.57-.79c-.67-.47-1.3-.89-1.9-1.35-1.56-1.22-1.88-2.53-.71-4.09a28.38,28.38,0,0,0,3.42-6.52A6.88,6.88,0,0,1,125,26a2.44,2.44,0,0,1,1.92.88,2.46,2.46,0,0,1-.21,2.06,14.65,14.65,0,0,0-2,8.45,7.79,7.79,0,0,0,1.24,2.82c.55,1.07,1.18,2.11,1.75,3.17a13.93,13.93,0,0,0,1.46,2.76c3.26,3.7,6.65,7.31,9.93,11a37.14,37.14,0,0,1,3.12,4c1.66,2.45,1.68,4.58-.34,6.75-3.36,3.62-6.82,7.15-10.44,10.5s-7.41,6.28-11,9.51a4.11,4.11,0,0,0-1.07,2.44c-.68,5.88-1.19,11.78-1.89,17.65s-1.57,11.46-2.23,17.21a37.82,37.82,0,0,0,0,5.73,26.46,26.46,0,0,1-2,11.72,44.21,44.21,0,0,0-3.1,12.86,12.57,12.57,0,0,0,.35,3c.51,3.53-1.41,5.79-4.86,5.09-3.13-.63-6.09,0-9.13.2-1,.07-2,.13-2.93.14a2.17,2.17,0,0,1-.88-4.24c1.44-.62,3-1,4.42-1.63,4.7-1.94,6.79-3.72,7.2-9.37.48-6.49,1.27-12.95,1.9-19.43a10.71,10.71,0,0,0,0-2c-.17-2-.38-3.94-.56-5.91-.32-3.73-.65-7.46-.93-11.19-.21-2.89-.32-5.78-.54-8.66-.14-1.91-.41-3.81-.62-5.71-.09-.76-.53-1-1.3-1.09-2.12-.11-4.24-.38-6.37-.41-1.82,0-3.64.26-5.46.28a12.7,12.7,0,0,1-3.49-.34,13.52,13.52,0,0,0-5.65-.61,7.92,7.92,0,0,1-8.09-3.54A6.27,6.27,0,0,0,66,87.29c-5.15,1.12-10.34.58-15.53.22-2.8-.19-5.62-.09-8.42-.21-4.59-.21-9.18-.48-13.76-.75a5.61,5.61,0,0,0-3.8.73,2.26,2.26,0,0,1-1.29.5c-3-.21-5.93-.4-8.86-.79a5.71,5.71,0,0,1-2.42-1.36,1.5,1.5,0,0,1-.42-1.33,1.57,1.57,0,0,1,1.13-.76c3.92-.52,7.85-1,11.77-1.43a13.62,13.62,0,0,1,2.29-.2,53.92,53.92,0,0,0,13.57-1.24,29.19,29.19,0,0,1,6.07-.25c3.1,0,6.23.42,9.29.14C57.74,80.36,59.8,79.28,61.87,78.6Zm27.47-7.15c1.1,1.08,2.31,2.38,3.63,3.55a49.45,49.45,0,0,0,4.47,3.59,3.3,3.3,0,0,0,4.15-.16c.82-.61,1.72-1.13,2.49-1.79a10.42,10.42,0,0,1,10-2.25c2.58.71,4.58-.09,6.61-1.63,3.12-2.35,6.42-4.47,9.62-6.71.93-.65,1.8-1.37,2.76-2.11-.32-.28-.5-.47-.7-.61a19.39,19.39,0,0,1-6.58-8c-.95-2-2.15-4-3.28-5.91-.19-.32-.67-.73-1-.68-1.19.19-2.63.19-3.49.87-5.13,4-10.41,7.81-15.75,11.55C97.94,64.27,93.87,67.84,89.34,71.45Zm36.15-44.06a11.56,11.56,0,0,0-2.12.54,6.91,6.91,0,0,0-3.48,3.87A37.9,37.9,0,0,1,117,37.32c-1.06,1.7-1.11,2,.59,3.13C120,42,120.07,43.1,118,45a7,7,0,0,1-.6.48,69,69,0,0,1-12.07,7.12,17.49,17.49,0,0,0-4,2.68c-3.91,3.19-7.85,6.56-12.85,7.6s-8.11,4.41-12.15,7a12.42,12.42,0,0,0,9.56,1.7c.94-.21,1.9-.39,2.3-1.51.11-.3.57-.49.88-.7,1.74-1.22,3.53-2.37,5.21-3.67,3.28-2.51,6.45-5.16,9.74-7.65,4.1-3.1,8.32-6,12.41-9.17a8.13,8.13,0,0,1,4.82-1.71,2.69,2.69,0,0,1,2.69,1.54c.72,1.31,1.57,2.55,2.2,3.89,1.84,3.95,4,7.57,7.82,10,1,.66,1,1.64,0,2.48a36.72,36.72,0,0,1-3.45,2.61c-2.62,1.81-5.28,3.57-7.91,5.38-.27.19-.6.6-.57.87a15.24,15.24,0,0,0,3.21,7.67c2.8-2.46,5.59-4.76,8.21-7.24,2.48-2.33,4.83-4.8,7.13-7.32,1.6-1.76,1.63-3.14.27-5.07a46.34,46.34,0,0,0-3.29-4.22c-3.15-3.53-6.42-7-9.51-10.53a17.75,17.75,0,0,1-1.92-3.64,6.89,6.89,0,0,0-1-2,6,6,0,0,1-2-5A19.6,19.6,0,0,1,125.49,27.39Zm-8,67.16a34.53,34.53,0,0,0-3.52.72c-2.54.84-5,1.74-7.55,2.68-.36.14-.83.66-.82,1,.13,3.49.28,7,.54,10.46.29,4,.69,8,1,12.07.16,1.84.37,3.69.52,5.53a15.53,15.53,0,0,1,0,2.55c-.63,6.47-1.43,12.94-1.9,19.43-.44,6.17-3,8.55-8.3,10.66-1.34.53-2.73.94-4.07,1.49-.31.13-.49.58-.74.89a2.91,2.91,0,0,0,1,.43,24.05,24.05,0,0,0,2.55-.1c3.16-.24,6.27-1,9.51-.2,2.42.59,3.54-.8,3.21-3.33a15,15,0,0,1-.35-3.51,43.32,43.32,0,0,1,3-12.75,28.26,28.26,0,0,0,2-12.85A43.28,43.28,0,0,1,114,123c.5-4.61,1.13-9.2,1.7-13.8C116.25,104.4,116.84,99.64,117.46,94.55ZM100.18,93.1c0-2.4,0-4.61,0-6.81,0-1.57,0-3.14-.12-4.7,0-.29-.44-.78-.7-.79-2.1-.14-3.64-1.35-5.16-2.58-.89-.71-1.71-1.49-2.71-2.38-2.87,5.44-7.5,9.73-8.77,15.82,2,.52,3.73,1,5.54,1.44a6.16,6.16,0,0,0,1.77,0c1.94-.11,3.89-.32,5.83-.35C97.17,92.75,98.48,93,100.18,93.1ZM14.32,85.23a21.15,21.15,0,0,0,8.87,1,1.3,1.3,0,0,0,.57-.27A6.92,6.92,0,0,1,28.41,85q6.87.43,13.75.75c2.85.13,5.7,0,8.55.23,4.58.3,9.17.79,13.75,0,2.22-.38,4.41-.91,7,.34-1-2.84-1.78-5.26-2.6-7.66a8.67,8.67,0,0,1-1.59.41,25.63,25.63,0,0,0-8.46,2.25,8,8,0,0,1-2.93.79c-3.4,0-6.79-.17-10.19-.27a15,15,0,0,0-3.42,0A61,61,0,0,1,26,83.46a3.25,3.25,0,0,0-.76.06Zm50.9-16.71c-.19-.3-.3-.47-.4-.65-1.86-3-4.22-3.33-6.85-1a1.68,1.68,0,0,0-.58,2.2c.46,1,.7,2.18,1.07,3.26a2.41,2.41,0,0,0,.51.82,22.48,22.48,0,0,1,2.29,2.4c.91,1.34,1.12,1.42,2.69.78a10.15,10.15,0,0,1,3.15-.8,1.8,1.8,0,0,1,2,1.81,1,1,0,0,0,.45.78,12,12,0,0,0,3,.93,2.5,2.5,0,0,0,3-2.71,49.21,49.21,0,0,0-.77-5.23l-.42.24c-.61-.28-1.21-.56-1.83-.83-.16-.07-.37-.2-.5-.14-1.3.55-1.87-.28-2.38-1.24a13.32,13.32,0,0,0-1.4-2.55,2.6,2.6,0,0,0-1.89-.69c-.33,0-.66.84-.9,1.34A5.25,5.25,0,0,0,65.22,68.52Z"/></svg>