<?xml version="1.0" encoding="utf-8"?>
<!-- Generator: Adobe Illustrator 23.0.2, SVG Export Plug-In . SVG Version: 6.00 Build 0)  -->
<svg version="1.1" id="Layer_1" xmlns="http://www.w3.org/2000/svg" xmlns:xlink="http://www.w3.org/1999/xlink" x="0px" y="0px"
	 viewBox="0 0 200 200" style="enable-background:new 0 0 200 200;" xml:space="preserve">
<style type="text/css">
	.st0{fill:url(#SVGID_1_);}
	.st1{fill:#FFFFFF;}
</style>
<title>Q1 - Male</title>
<linearGradient id="SVGID_1_" gradientUnits="userSpaceOnUse" x1="200" y1="2" x2="1.506351e-12" y2="202" gradientTransform="matrix(1 0 0 -1 0 202)">
	<stop  offset="0.39" style="stop-color:#000000"/>
	<stop  offset="1" style="stop-color:#1F1F1F"/>
</linearGradient>
<rect class="st0" width="200" height="200"/>
<g>
	<path class="st1" d="M160.5,43.7h-1.3c-0.6-1.3-1.6-2.3-2.9-2.9v-1.1l-0.8,0.8c-0.9-0.3-1.9-0.5-3.1-0.5h-24.9
		c-5.2,0-7.6,3.6-7.6,6.9c0,3.3,2.4,6.8,7.6,6.8h8.8l-17.7,17.7c-9-6.8-20-10.2-31.5-9.7c-13.3,0.6-25.5,6.3-34.4,16
		c-16.8,18.6-17,46.9-0.5,65.8c9.5,10.8,23.2,16.5,37,16.5c9.7,0,19.4-2.8,27.8-8.6c10.2-6.8,17.3-17.2,19.9-29.2
		c3.4-14.9,0.6-28.6-8.3-40.7l17.7-17.7v8.4c0,0.7,0,1.3,0.1,2l0,0.3c0.6,3.3,3.6,5.6,6.9,5.5c3.3-0.1,6.2-2.6,6.6-5.9
		c0.1-0.6,0.1-1.2,0.1-1.8V47.6c0-1.1-0.2-2.1-0.4-3L160.5,43.7z M89.2,146.3L89.2,146.3c-9.6,0-18.5-3.7-25.1-10.4
		c-6.7-6.7-10.4-15.6-10.4-25.1v-0.1c0-19.5,16-35.4,35.5-35.4h0.1c9.5,0,18.4,3.7,25.1,10.5c6.7,6.7,10.4,15.6,10.3,25.1
		c0,9.5-3.7,18.4-10.4,25.1C107.5,142.7,98.6,146.3,89.2,146.3z"/>
</g>
<polyline class="st1" points="127.6,40 160.5,39.7 160,72.4 "/>
</svg>
