<svg id="Layer_1" data-name="Layer 1" xmlns="http://www.w3.org/2000/svg" xmlns:xlink="http://www.w3.org/1999/xlink" viewBox="0 0 200 200"><defs><style>.cls-1{fill:url(#Black_Gradient_Swatch);}.cls-2,.cls-3{fill:#fff;}.cls-2{stroke:#fff;stroke-miterlimit:10;stroke-width:2px;}</style><linearGradient id="Black_Gradient_Swatch" x1="200" y1="200" x2="0" gradientUnits="userSpaceOnUse"><stop offset="0.39"/><stop offset="1" stop-color="#1f1f1f"/></linearGradient></defs><title>Q1 - Male B</title><rect class="cls-1" width="200" height="200"/><path class="cls-2" d="M158.67,138.69,175.37,122H163.56c-.95,0-1.46-.37-1.46-1s.52-1.06,1.46-1.06h14.1c1.13,0,1.45.32,1.45,1.47q0,7,0,14.1a3.63,3.63,0,0,1,0,.58,1,1,0,0,1-2,0,4.11,4.11,0,0,1,0-.7V123.74l-16.64,16.64A24.74,24.74,0,0,1,166.11,163,24,24,0,0,1,156,177.83a25,25,0,1,1,2.67-39.14Zm-16.91,41.47a22.95,22.95,0,1,0-22.9-22.94A22.9,22.9,0,0,0,141.76,180.16Z"/><path class="cls-3" d="M70.77,125.39c-3.89-.45-3.85-.45-3.92-4.4,0-2.69-.2-5.37-.32-8.06a9,9,0,0,0-.25-1.15c-2.1,4.38-1.89,8.76-2,13.23H61.66c-.9,4.86-2.07,9.49-2.54,14.18-.4,3.94.06,7.95.08,11.93,0,2.87.09,5.74-.16,8.59a7.36,7.36,0,0,1-4.12,5.94,14.25,14.25,0,0,1-7.31,2c-1.18,0-2.28-.33-2.75-1.55s.27-2,1.06-2.69c1.32-1.15,2.77-2.15,4-3.36a4.75,4.75,0,0,0,1.32-2.32c.78-3.77.08-7.51-.62-11.21a54.27,54.27,0,0,1-.33-15.27c.21-2.19.28-4.39.33-6.58a1.66,1.66,0,0,0-.51-1.25c-2.34-1.63-2.86-4-2.46-6.55.45-2.77,1.35-5.47,1.92-8.22.86-4.17,1.51-8.38,2.41-12.53,1.39-6.35,2.72-12.68,2.94-19.23a39.76,39.76,0,0,0-2.37-14.08c-.1,0-.21,0-.25,0-4.87,4.52-10.73,5-16.88,4-2.78-.42-4.42-2.46-4.67-5.31a20.81,20.81,0,0,1,1.49-9A47.05,47.05,0,0,0,35.49,39c-.41.31-.9.49-1,.76-.25,1.09-.36,2.21-.53,3.31-.26,1.67-1.2,2.57-2.5,2.4s-2-1.22-1.8-2.92q.81-5.72,1.69-11.43a2.14,2.14,0,0,1,2.44-2,2.09,2.09,0,0,1,1.83,2.52c-.11,1.24-.33,2.47-.51,3.77a5.39,5.39,0,0,0,3.91-.09,4.18,4.18,0,0,1,4.53.73A23.1,23.1,0,0,0,46,37.5c.26-1.58.45-2.8.66-4a2.17,2.17,0,1,1,4.28.61q-.84,5.85-1.78,11.69a2.12,2.12,0,0,1-2.53,2A2.21,2.21,0,0,1,45,45c.21-1.4.4-2.8.61-4.26-2.79.7-5.16,8.25-4.41,13.42,1.59-.6,3.22-1.19,4.81-1.85a5.16,5.16,0,0,0,1.95-1.13c2.3-2.77,5.42-3.42,8.76-3.74,1.89-.18,3.83-.44,5.42-1.86-4-3.8-3.18-8.5-2.66-13.14.13-1.1.41-2.2.65-3.29.69-3.27,2.55-5.14,5.52-5.58a7.26,7.26,0,0,1,7.32,3.75c1.72,3.18,1.81,6.62,1.36,10.09a13,13,0,0,1-3,7.14,17.37,17.37,0,0,0,2,1.1c2.38.89,4.76,1.85,7.21,2.55a11.15,11.15,0,0,1,6.66,5.06A52.08,52.08,0,0,1,95,82.47a46.37,46.37,0,0,1-2.57,15.44A13,13,0,0,1,87.7,104,3.61,3.61,0,0,1,83,104c.12,2,.17,3.83.36,5.62.36,3.38.79,6.76,1.19,10.15,0,.35.1.71.12,1.06.16,2.39-.23,3-2.61,4,0,.8-.06,1.64,0,2.48a142,142,0,0,1-.51,23.24c-.2,2.27-.11,4.57-.13,6.86A4.25,4.25,0,0,0,83.25,161a17.69,17.69,0,0,1,2.49,2.24,3.07,3.07,0,0,1,.75,3.58A3.76,3.76,0,0,1,83,168.89c-3.18.08-6.51-2.1-7.17-5.23-.87-4.15-1.38-8.38-1.9-12.6-1.05-8.4-2-16.81-3-25.22A4.19,4.19,0,0,0,70.77,125.39ZM70,45.65a6.89,6.89,0,0,1-5.64.79c-.27-.07-.72-.11-.86,0-2.11,2.23-4.94,2.33-7.68,2.73-2.05.29-4.13.44-5.64,2.15a9.51,9.51,0,0,1-5,3,6.86,6.86,0,0,0-4.46,3.41,24.31,24.31,0,0,1-2,2.87c-.22.29-.74.34-1.12.49a7.94,7.94,0,0,1-.23-1.35c0-.21.3-.42.47-.63a5.87,5.87,0,0,0,1.64-4.76,29.11,29.11,0,0,1,0-3.37,14.8,14.8,0,0,1,2.82-9.08c.31-.41.56-.87,1-1.5l-5.93-.88a10,10,0,0,0-.34,1.4c-.36,4.33-1.83,8.37-3.24,12.43a18.81,18.81,0,0,0-1.3,8.17,3.75,3.75,0,0,0,3.43,3.72,34.19,34.19,0,0,0,5.89.28,13.66,13.66,0,0,0,10.2-4.71,32.66,32.66,0,0,1,2.5-2.63c.23-.2.77-.06,1.16-.08a4.32,4.32,0,0,1,0,1.08,1.35,1.35,0,0,1-.52.6,2.43,2.43,0,0,0-.75,3.16,34.51,34.51,0,0,1,2.12,15.59c-.3,2.76-.58,5.52-.8,8.29,0,.46.2,1.22.52,1.37,7.15,3.23,14.41,3,21.73.6-.17-1.59-.4-3.1-.47-4.61a41.18,41.18,0,0,1,2.93-17.1,2.14,2.14,0,0,0-.1-2.13c-1.11-1.78-.75-3.72-.37-5.62a1.14,1.14,0,0,1,.73-.64.89.89,0,0,1,.72.45,2.63,2.63,0,0,1,0,1.18,6,6,0,0,0,1,5.08,23.81,23.81,0,0,1,1.75,3.32,26.23,26.23,0,0,0,2.41,4.47,11.1,11.1,0,0,1,2.21,6.5c.46,6.45-.06,12.73-4.21,18.17a4.4,4.4,0,0,0-1,2.59,3.89,3.89,0,0,0,1.17,2.63c.37.31,1.72-.15,2.36-.62A11.35,11.35,0,0,0,91.1,96.9,46.12,46.12,0,0,0,93.38,83a50.94,50.94,0,0,0-7.24-28.37,10.47,10.47,0,0,0-6.75-5.08A31.8,31.8,0,0,1,70,45.65Zm2.63,79.56a4,4,0,0,0,0,.53c1.08,9.7,2.11,19.41,3.27,29.11a68.91,68.91,0,0,0,1.57,8.56,5.6,5.6,0,0,0,5.7,3.82A3,3,0,0,0,85,166c.23-.34-.13-1.29-.5-1.76a10.11,10.11,0,0,0-2.07-1.89,6,6,0,0,1-2.62-5.17c0-2.33,0-4.67.18-7a142.7,142.7,0,0,0,.47-22.83c-.06-.79-.09-1.57-.12-2.19ZM46,165.73a7.23,7.23,0,0,0,2.08.27,35.69,35.69,0,0,0,5.52-1.5,5.87,5.87,0,0,0,3.84-5.12,53.34,53.34,0,0,0,.08-8.57c-.53-6.07-.54-12.05,1.12-18a63.16,63.16,0,0,0,1.17-7.29l-7.48-.85c-.15,2.2-.27,4.48-.46,6.75A56.85,56.85,0,0,0,52,145.1c.54,3.44.85,6.92,1.09,10.4a6.64,6.64,0,0,1-3.37,6.79,16.57,16.57,0,0,0-2.5,2A18.65,18.65,0,0,0,46,165.73Zm35.8-97.89a34.92,34.92,0,0,0,.94,29.73c-.15.07-.1.06-.08,0,.3-.44.57-.9.88-1.34,3.92-5.49,4-11.66,3.29-18-.24-2-1.42-3.51-2.38-5.16S82.7,69.61,81.82,67.84ZM60.51,37.63a24.89,24.89,0,0,0,.88,4.3A5.24,5.24,0,0,0,69.46,44c3.31-2.62,4.31-9.37,1.88-12.78a1.51,1.51,0,0,0-.82-.62,52.85,52.85,0,0,0-5.27-.93A3.66,3.66,0,0,0,61,33.18C60.81,34.46,60.7,35.76,60.51,37.63Z"/><path class="cls-3" d="M55.3,36.55c-.42,2.69-.83,5.53-1.31,8.36a1.61,1.61,0,0,1-1.94,1.43,1.68,1.68,0,0,1-1.55-2c.39-2.84.83-5.67,1.3-8.5a1.62,1.62,0,0,1,2-1.43C54.82,34.55,55.35,35.3,55.3,36.55Z"/><path class="cls-3" d="M30.08,32.87c-.39,2.6-.78,5.44-1.26,8.26a1.64,1.64,0,0,1-2,1.44,1.66,1.66,0,0,1-1.53-2q.55-4.2,1.23-8.38a1.69,1.69,0,0,1,2-1.57Q30.19,30.85,30.08,32.87Z"/><path class="cls-3" d="M77.37,64.65l1.28.58c-1.16,2.4-3.45,2.32-5.43,2.63a6.25,6.25,0,0,1-6.9-3.47c-.8.69-1.52,1.4-2.34,2-2.37,1.66-4.89,1.46-7.4.39-.31-.13-.45-.65-.67-1a4.58,4.58,0,0,1,1.23-.45,3.21,3.21,0,0,1,1.14.36c3.45,1.27,7.78-1.62,7.2-5.31-.07-.4.46-.88.71-1.32a10.5,10.5,0,0,1,.86,1.27c.13.26,0,.62.08.93.38,3.77,2.87,5.66,6.59,4.91A38.65,38.65,0,0,0,77.44,65Z"/></svg>