<?xml version="1.0" encoding="utf-8"?>
<!-- Generator: Adobe Illustrator 23.0.2, SVG Export Plug-In . SVG Version: 6.00 Build 0)  -->
<svg version="1.1" id="Layer_1" xmlns="http://www.w3.org/2000/svg" xmlns:xlink="http://www.w3.org/1999/xlink" x="0px" y="0px"
	 viewBox="0 0 200 200" style="enable-background:new 0 0 200 200;" xml:space="preserve">
<style type="text/css">
	.st0{fill:url(#SVGID_1_);}
	.st1{fill:#FFFFFF;}
</style>
<title>Q1 - Female</title>
<linearGradient id="SVGID_1_" gradientUnits="userSpaceOnUse" x1="200" y1="2" x2="1.506351e-12" y2="202" gradientTransform="matrix(1 0 0 -1 0 202)">
	<stop  offset="0.39" style="stop-color:#000000"/>
	<stop  offset="1" style="stop-color:#1F1F1F"/>
</linearGradient>
<rect class="st0" width="200" height="200"/>
<g>
	<path class="st1" d="M110.6,27.2c-13-2.8-26.3-0.4-37.5,6.8c-11.2,7.2-18.9,18.3-21.7,31.3c-2.8,12.1-0.9,24.6,5.5,35.3
		c8.1,13.8,20.1,22,35.8,24.5v13.6h-6c-0.9,0-1.9,0-2.8,0c-1.8,0-3.7,0-5.6,0c-1.4,0-2.7,0.3-3.9,1c-1.7,1-2.9,2.6-3.4,4.5
		c-0.5,1.9-0.2,3.8,0.8,5.5l0.1,0.2c1.5,2.3,4.1,3.6,6.8,3.4h14.1v12.9c0,4.5,3.1,7.8,7.2,7.8h0.1c1.9,0,3.7-0.7,5.1-2
		c1.5-1.4,2.3-3.5,2.3-5.8v-13h11.8l0.8,0c0.9,0,1.8,0,2.8-0.1c3.5-0.2,6.3-3,6.6-6.5c0.5-3.5-1.7-6.8-5.2-7.8c-1-0.3-2-0.4-3.1-0.4
		h-13.7v-13.5c20.3-3,36.9-18.4,41.3-38.7c0.8-3.5,1.1-7.1,1.1-10.5C149.9,52.9,133.9,32.2,110.6,27.2z M100,40.7
		C100.1,40.7,100.1,40.7,100,40.7c9.4,0,18.2,3.7,24.9,10.3c6.6,6.6,10.3,15.5,10.3,24.9s-3.7,18.2-10.3,24.9
		c-6.6,6.6-15.5,10.3-24.8,10.3c0,0,0,0,0,0c-19.4-0.1-35.1-15.9-35.2-35.2C64.9,56.4,80.7,40.7,100,40.7z"/>
</g>
<rect x="70.3" y="138.3" class="st1" width="59.4" height="15.3"/>
<rect x="69.9" y="137.3" transform="matrix(-1.836970e-16 1 -1 -1.836970e-16 244.9895 44.9895)" class="st1" width="60.3" height="15.3"/>
</svg>
