<svg id="Layer_1" data-name="Layer 1" xmlns="http://www.w3.org/2000/svg" xmlns:xlink="http://www.w3.org/1999/xlink" viewBox="0 0 200 200"><defs><style>.cls-1{fill:url(#Black_Gradient_Swatch);}.cls-2{fill:#fff;stroke:#fff;stroke-miterlimit:10;stroke-width:6px;}</style><linearGradient id="Black_Gradient_Swatch" x1="200" y1="200" x2="0" gradientUnits="userSpaceOnUse"><stop offset="0.39"/><stop offset="1" stop-color="#1f1f1f"/></linearGradient></defs><title>Q1 - Female</title><rect class="cls-1" width="200" height="200"/><path class="cls-2" d="M102.43,120.62v23h1.41c5.79,0,11.58,0,17.38,0a5.33,5.33,0,0,1,1.65.18,2.11,2.11,0,0,1,1.54,2.4,2.08,2.08,0,0,1-2,2c-1.07.1-2.16.05-3.24.05H102.43c0,.52-.06,1-.06,1.43V166.2c0,1.75-.92,2.82-2.36,2.8s-2.3-1.08-2.31-2.85V148.31H96.28c-6,0-11.93,0-17.89,0A2.52,2.52,0,0,1,76,147.17a2.33,2.33,0,0,1,2.16-3.51c2.81-.06,5.62,0,8.43,0H97.62v-23C81.69,119.26,69.3,111.91,61.15,98a42.87,42.87,0,0,1-4.91-31.64,44.81,44.81,0,1,1,46.19,54.24ZM100,116A40.16,40.16,0,1,0,59.86,75.75,40.27,40.27,0,0,0,100,116Z"/></svg>