<?xml version="1.0" encoding="utf-8"?>
<!-- Generator: Adobe Illustrator 23.0.2, SVG Export Plug-In . SVG Version: 6.00 Build 0)  -->
<svg version="1.1" id="Layer_1" xmlns="http://www.w3.org/2000/svg" xmlns:xlink="http://www.w3.org/1999/xlink" x="0px" y="0px"
	 viewBox="0 0 200 200" style="enable-background:new 0 0 200 200;" xml:space="preserve">
<style type="text/css">
	.st0{fill:url(#SVGID_1_);}
	.st1{enable-background:new    ;}
	.st2{fill:#FFFFFF;}
</style>
<title>Q2 - 18to25</title>
<linearGradient id="SVGID_1_" gradientUnits="userSpaceOnUse" x1="200" y1="2" x2="1.506351e-12" y2="202" gradientTransform="matrix(1 0 0 -1 0 202)">
	<stop  offset="0.39" style="stop-color:#000000"/>
	<stop  offset="1" style="stop-color:#1F1F1F"/>
</linearGradient>
<rect class="st0" width="200" height="200"/>
<g class="st1">
	<path class="st2" d="M49.1,36.2c-0.1,0.2-1.9,0.6-5.4,1.3c-3.5,0.7-5.9,1.1-7.2,1.3v-7.3c7.3-1.7,12.3-4.4,15-7.9h7.3v72.9h-9.6
		V36.2z"/>
	<path class="st2" d="M78.1,91.8c-2.8-3.7-4.2-8.9-4.2-15.8c0-4.6,0.8-8.3,2.3-11.1c1.5-2.8,3.8-5,6.7-6.8c-5.4-3.6-8.1-9-8.1-16.3
		c0-5.9,1.4-10.6,4.2-13.9c2.8-3.3,7.1-5,12.9-5c5.7,0,9.9,1.7,12.7,5c2.8,3.3,4.2,7.9,4.2,13.9c0,3.9-0.7,7.2-2.1,9.8
		c-1.4,2.6-3.4,4.8-6,6.5c2.9,1.9,5.2,4.2,6.8,6.9c1.6,2.8,2.3,6.4,2.3,11c0,6.8-1.4,12.1-4.2,15.8c-2.8,3.7-7.4,5.5-13.7,5.5
		C85.5,97.3,80.9,95.4,78.1,91.8z M98.6,86.1c1.3-2.4,1.9-5.7,1.9-9.9c0-3.9-0.7-7.1-2-9.5c-1.4-2.5-3.6-3.7-6.6-3.8
		c-3.1,0.1-5.4,1.3-6.8,3.8C83.7,69,83,72.2,83,76.1c0,4.3,0.6,7.6,1.9,9.9c1.3,2.4,3.6,3.6,6.9,3.6C95.1,89.6,97.4,88.4,98.6,86.1z
		 M99.3,41.2c0-3.2-0.6-5.9-1.8-7.8c-1.2-2-3.1-3-5.7-3c-2.6,0-4.6,1-5.8,3c-1.2,2-1.8,4.6-1.8,7.8c0,3.6,0.6,6.6,1.7,8.9
		c1.1,2.3,3.1,3.5,5.9,3.6C96.8,53.6,99.3,49.4,99.3,41.2z"/>
</g>
<g class="st1">
	<path class="st2" d="M86.8,169.6l18.5-28.9c0.9-1.4,1.5-2.3,1.8-2.7c2.1-3.4,3.6-6.1,4.6-8.4c1-2.2,1.4-4.9,1.4-8
		c0-3.5-0.6-6.2-1.7-8c-1.1-1.9-3-2.8-5.6-2.8c-5.8,0-8.6,4.5-8.6,13.4v2.4h-9.6v-2.5c0-6.8,1.4-12.1,4.2-15.8
		c2.8-3.7,7.3-5.5,13.6-5.5c5.8,0,10.1,1.6,13.1,4.9c2.9,3.3,4.4,7.9,4.4,13.9c0,2.9-0.3,5.6-1,7.9c-0.7,2.3-1.5,4.3-2.5,6
		c-1,1.7-2.5,4.1-4.5,7.2l-16.7,25.6h23v8.1H86.8V169.6z"/>
	<path class="st2" d="M134.4,171.8c-2.7-3.6-4.1-8.8-4.1-15.8h9.6c0,4.1,0.6,7.4,1.7,9.8c1.1,2.5,3.3,3.7,6.5,3.7
		c2.5,0,4.3-0.7,5.5-2.2c1.2-1.4,2-3.3,2.3-5.7c0.3-2.4,0.5-5.5,0.5-9.5c0-3.7-0.2-6.6-0.6-8.8c-0.4-2.2-1.2-3.9-2.3-5
		c-1.2-1.2-2.9-1.8-5.3-1.8c-1.9,0-3.5,0.6-4.9,1.7c-1.4,1.1-2.5,2.6-3.2,4.3h-8.2v-39.1h31.4v9.6h-22.7l-0.6,20.2
		c2.6-2.7,6.1-4,10.5-4c5.6,0,9.6,1.9,11.9,5.7c2.4,3.8,3.6,9.1,3.6,15.9c0,8.3-1.4,14.7-4,19.3c-2.7,4.6-7.4,6.9-14,6.9
		C141.7,177.2,137.1,175.4,134.4,171.8z"/>
</g>
<g class="st1">
	<path class="st2" d="M136.1,64.9h-5.5v-3.4h15.3v3.4h-5.3v29h-4.5V64.9z"/>
	<path class="st2" d="M150.5,91.6c-1.4-1.8-2.1-4.4-2.1-7.8V71.5c0-3.4,0.7-5.9,2.1-7.6s3.7-2.6,6.8-2.6s5.4,0.9,6.8,2.6
		c1.4,1.7,2.1,4.3,2.1,7.6v12.3c0,3.4-0.7,5.9-2.1,7.8c-1.4,1.8-3.6,2.7-6.8,2.7C154.1,94.3,151.9,93.4,150.5,91.6z M160.7,89.3
		c0.6-1,0.9-2.5,0.9-4.5V70.6c0-2-0.3-3.4-0.9-4.4c-0.6-0.9-1.7-1.4-3.4-1.4c-1.7,0-2.9,0.5-3.4,1.4c-0.6,0.9-0.9,2.4-0.9,4.4v14.2
		c0,2,0.3,3.5,0.9,4.5c0.6,1,1.7,1.5,3.4,1.5C159,90.8,160.1,90.3,160.7,89.3z"/>
</g>
</svg>
