<?xml version="1.0" encoding="utf-8"?>
<!-- Generator: Adobe Illustrator 23.0.2, SVG Export Plug-In . SVG Version: 6.00 Build 0)  -->
<svg version="1.1" id="Layer_1" xmlns="http://www.w3.org/2000/svg" xmlns:xlink="http://www.w3.org/1999/xlink" x="0px" y="0px"
	 viewBox="0 0 200 200" style="enable-background:new 0 0 200 200;" xml:space="preserve">
<style type="text/css">
	.st0{fill:url(#SVGID_1_);}
	.st1{enable-background:new    ;}
	.st2{fill:#FFFFFF;}
</style>
<title>Q2 - 25to35</title>
<linearGradient id="SVGID_1_" gradientUnits="userSpaceOnUse" x1="200" y1="2" x2="1.506351e-12" y2="202" gradientTransform="matrix(1 0 0 -1 0 202)">
	<stop  offset="0.39" style="stop-color:#000000"/>
	<stop  offset="1" style="stop-color:#1F1F1F"/>
</linearGradient>
<rect class="st0" width="200" height="200"/>
<g class="st1">
	<path class="st2" d="M34.8,89.6l18.5-28.9c0.9-1.4,1.5-2.3,1.8-2.7c2.1-3.4,3.6-6.1,4.6-8.4c1-2.2,1.4-4.9,1.4-8
		c0-3.5-0.6-6.2-1.7-8c-1.1-1.9-3-2.8-5.6-2.8c-5.8,0-8.6,4.5-8.6,13.4v2.4h-9.6v-2.5c0-6.8,1.4-12.1,4.2-15.8
		c2.8-3.7,7.3-5.5,13.6-5.5c5.8,0,10.1,1.6,13.1,4.9c2.9,3.3,4.4,7.9,4.4,13.9c0,2.9-0.3,5.6-1,7.9c-0.7,2.3-1.5,4.3-2.5,6
		c-1,1.7-2.5,4.1-4.5,7.2L46.1,88.4h23v8.1H34.8V89.6z"/>
	<path class="st2" d="M82.4,91.8c-2.7-3.6-4.1-8.8-4.1-15.8h9.6c0,4.1,0.6,7.4,1.7,9.8c1.1,2.5,3.3,3.7,6.5,3.7
		c2.5,0,4.3-0.7,5.5-2.2c1.2-1.4,2-3.3,2.3-5.7c0.3-2.4,0.5-5.5,0.5-9.5c0-3.7-0.2-6.6-0.6-8.8c-0.4-2.2-1.2-3.9-2.3-5
		c-1.2-1.2-2.9-1.8-5.3-1.8c-1.9,0-3.5,0.6-4.9,1.7c-1.4,1.1-2.5,2.6-3.2,4.3h-8.2V23.5h31.4v9.6H88.7L88,53.3c2.6-2.7,6.1-4,10.5-4
		c5.6,0,9.6,1.9,11.9,5.7c2.4,3.8,3.6,9.1,3.6,15.9c0,8.3-1.4,14.7-4,19.3c-2.7,4.6-7.4,6.9-14,6.9C89.7,97.2,85.1,95.4,82.4,91.8z"
		/>
</g>
<g class="st1">
	<path class="st2" d="M91.3,172.4c-3-3.3-4.5-7.9-4.5-13.8v-2.4h9.5v1.6c0.1,3.7,0.8,6.6,1.9,8.5c1.2,2,3.3,3,6.3,3
		c3.2,0,5.4-1.1,6.6-3.4s1.8-5.6,1.8-10c0-4.1-0.8-7.3-2.3-9.6c-1.5-2.3-3.9-3.6-7.3-3.8c-0.2-0.1-0.7-0.1-1.4-0.1v-9.6h1.3
		c3.4-0.1,5.9-1,7.4-2.7c1.5-1.7,2.3-4.5,2.3-8.4c0-3.6-0.6-6.3-1.8-8.1c-1.2-1.8-3.4-2.7-6.5-2.7c-3.1,0-5.3,1-6.4,3
		c-1.2,2-1.8,4.9-1.9,8.7v1.5h-9.5v-2.4c0-5.9,1.5-10.5,4.5-13.8c3-3.2,7.5-4.9,13.4-4.9c5.9,0,10.3,1.6,13.4,4.9
		c3,3.3,4.5,7.9,4.5,13.8c0,4.3-0.9,7.7-2.8,10.4c-1.9,2.7-4.4,4.5-7.7,5.5c3.3,1,5.9,3.1,7.7,6.2c1.8,3.1,2.7,7.1,2.7,12.1
		c0,6.8-1.5,12-4.4,15.8c-2.9,3.8-7.5,5.6-13.6,5.6C98.7,177.3,94.3,175.6,91.3,172.4z"/>
	<path class="st2" d="M134.4,171.8c-2.7-3.6-4.1-8.8-4.1-15.8h9.6c0,4.1,0.6,7.4,1.7,9.8c1.1,2.5,3.3,3.7,6.5,3.7
		c2.5,0,4.3-0.7,5.5-2.2c1.2-1.4,2-3.3,2.3-5.7c0.3-2.4,0.5-5.5,0.5-9.5c0-3.7-0.2-6.6-0.6-8.8c-0.4-2.2-1.2-3.9-2.3-5
		s-2.9-1.8-5.3-1.8c-1.9,0-3.5,0.6-4.9,1.7c-1.4,1.1-2.5,2.6-3.2,4.3h-8.2v-39.1h31.4v9.6h-22.7l-0.6,20.2c2.6-2.7,6.1-4,10.5-4
		c5.6,0,9.6,1.9,11.9,5.7c2.4,3.8,3.6,9.1,3.6,15.9c0,8.3-1.3,14.7-4,19.3c-2.7,4.6-7.4,6.9-14,6.9
		C141.6,177.2,137.1,175.4,134.4,171.8z"/>
</g>
<g class="st1">
	<path class="st2" d="M136.1,64.9h-5.5v-3.4h15.3v3.4h-5.3v29h-4.5V64.9z"/>
	<path class="st2" d="M150.5,91.6c-1.4-1.8-2.1-4.4-2.1-7.8V71.5c0-3.4,0.7-5.9,2.1-7.6s3.7-2.6,6.8-2.6s5.4,0.9,6.8,2.6
		c1.4,1.7,2.1,4.3,2.1,7.6v12.3c0,3.4-0.7,5.9-2.1,7.8c-1.4,1.8-3.6,2.7-6.8,2.7C154.1,94.3,151.9,93.4,150.5,91.6z M160.7,89.3
		c0.6-1,0.9-2.5,0.9-4.5V70.6c0-2-0.3-3.4-0.9-4.4c-0.6-0.9-1.7-1.4-3.4-1.4c-1.7,0-2.9,0.5-3.4,1.4c-0.6,0.9-0.9,2.4-0.9,4.4v14.2
		c0,2,0.3,3.5,0.9,4.5c0.6,1,1.7,1.5,3.4,1.5C159,90.8,160.1,90.3,160.7,89.3z"/>
</g>
</svg>
