<?xml version="1.0" encoding="utf-8"?>
<!-- Generator: Adobe Illustrator 23.0.2, SVG Export Plug-In . SVG Version: 6.00 Build 0)  -->
<svg version="1.1" id="Layer_1" xmlns="http://www.w3.org/2000/svg" xmlns:xlink="http://www.w3.org/1999/xlink" x="0px" y="0px"
	 viewBox="0 0 200 200" style="enable-background:new 0 0 200 200;" xml:space="preserve">
<style type="text/css">
	.st0{fill:url(#SVGID_1_);}
	.st1{enable-background:new    ;}
	.st2{fill:#FFFFFF;}
</style>
<title>Q2 - Over35</title>
<linearGradient id="SVGID_1_" gradientUnits="userSpaceOnUse" x1="200" y1="2" x2="1.506351e-12" y2="202" gradientTransform="matrix(1 0 0 -1 0 202)">
	<stop  offset="0.39" style="stop-color:#000000"/>
	<stop  offset="1" style="stop-color:#1F1F1F"/>
</linearGradient>
<rect class="st0" width="200" height="200"/>
<g class="st1">
	<path class="st2" d="M53.3,166.1c-4.1-4.4-6.1-10.6-6.1-18.6v-3.3H60v2.2c0.2,5,1,8.8,2.6,11.5c1.6,2.7,4.4,4,8.5,4
		c4.4,0,7.3-1.5,8.9-4.5c1.6-3,2.4-7.5,2.4-13.5c0-5.5-1-9.8-3-12.9c-2-3.1-5.3-4.8-9.8-5.1c-0.3-0.1-0.9-0.1-1.8-0.1v-12.9h1.7
		c4.6-0.2,7.9-1.4,9.9-3.6c2-2.3,3-6,3-11.3c0-4.8-0.8-8.5-2.4-11c-1.6-2.5-4.5-3.7-8.7-3.7c-4.2,0-7.1,1.3-8.7,4
		C61,89.9,60.2,93.8,60,99v2.1H47.2v-3.3c0-8,2-14.2,6.1-18.5c4.1-4.4,10.1-6.5,18-6.5c7.9,0,13.9,2.2,18,6.6
		c4.1,4.4,6.1,10.6,6.1,18.6c0,5.7-1.3,10.4-3.8,14c-2.5,3.6-5.9,6.1-10.3,7.4c4.4,1.4,7.9,4.2,10.3,8.3c2.5,4.2,3.7,9.6,3.7,16.2
		c0,9.1-2,16.2-5.9,21.2c-3.9,5-10,7.6-18.3,7.6C63.3,172.6,57.4,170.5,53.3,166.1z"/>
	<path class="st2" d="M111.2,165.3c-3.7-4.8-5.5-11.9-5.5-21.2h12.9c0,5.5,0.7,9.9,2.2,13.2c1.5,3.3,4.4,5,8.8,5
		c3.3,0,5.8-1,7.4-2.9c1.6-1.9,2.6-4.5,3.1-7.7c0.4-3.2,0.7-7.4,0.7-12.8c0-4.9-0.3-8.9-0.8-11.8c-0.5-2.9-1.6-5.2-3.1-6.8
		c-1.6-1.6-3.9-2.4-7.1-2.4c-2.5,0-4.7,0.8-6.6,2.3c-1.9,1.5-3.3,3.5-4.3,5.8h-11V73.6h42.2v12.9h-30.5l-0.8,27.1
		c3.5-3.6,8.2-5.4,14.2-5.4c7.5,0,12.8,2.6,16,7.7c3.2,5.1,4.8,12.2,4.8,21.4c0,11.1-1.8,19.8-5.4,26c-3.6,6.2-9.9,9.3-18.9,9.3
		C121,172.5,114.9,170.1,111.2,165.3z"/>
</g>
<g class="st1">
	<path class="st2" d="M64.6,51.6c-1.4-1.8-2.1-4.4-2.1-7.8V31.5c0-3.4,0.7-5.9,2.1-7.6c1.4-1.7,3.7-2.6,6.8-2.6s5.4,0.9,6.8,2.6
		c1.4,1.7,2.1,4.3,2.1,7.6v12.3c0,3.4-0.7,5.9-2.1,7.8c-1.4,1.8-3.6,2.7-6.8,2.7C68.2,54.3,66,53.4,64.6,51.6z M74.8,49.3
		c0.6-1,0.9-2.5,0.9-4.5V30.6c0-2-0.3-3.4-0.9-4.4c-0.6-0.9-1.7-1.4-3.4-1.4c-1.7,0-2.9,0.5-3.4,1.4c-0.6,0.9-0.9,2.4-0.9,4.4v14.2
		c0,2,0.3,3.5,0.9,4.5c0.6,1,1.7,1.5,3.4,1.5C73.1,50.8,74.2,50.3,74.8,49.3z"/>
	<path class="st2" d="M83.1,21.5h4.2l5.1,23.9l4.9-23.9h4.1L94.3,54h-4L83.1,21.5z"/>
	<path class="st2" d="M104.9,21.5h12.6v3.4h-8v10.7h6.5v3.2h-6.5v11.9h8.1V54h-12.6V21.5z"/>
	<path class="st2" d="M121.2,21.5h6.5c3.3,0,5.7,0.7,7.2,2s2.3,3.5,2.3,6.6c0,4.2-1.3,6.7-4,7.6l4.6,16.2h-4.4l-4.2-15.2h-3.5V54
		h-4.5V21.5z M127.4,35.5c1.9,0,3.3-0.4,4.2-1.2s1.3-2.2,1.3-4.2c0-1.3-0.1-2.4-0.4-3.1c-0.3-0.8-0.8-1.3-1.6-1.7
		c-0.7-0.4-1.8-0.5-3.2-0.5h-2v10.7H127.4z"/>
</g>
</svg>
