<?xml version="1.0" encoding="utf-8"?>
<!-- Generator: Adobe Illustrator 23.0.2, SVG Export Plug-In . SVG Version: 6.00 Build 0)  -->
<svg version="1.1" id="Layer_1" xmlns="http://www.w3.org/2000/svg" xmlns:xlink="http://www.w3.org/1999/xlink" x="0px" y="0px"
	 viewBox="0 0 200 200" style="enable-background:new 0 0 200 200;" xml:space="preserve">
<style type="text/css">
	.st0{fill:url(#SVGID_1_);}
	.st1{enable-background:new    ;}
	.st2{fill:#FFFFFF;}
</style>
<title>Q3 - 1-3</title>
<linearGradient id="SVGID_1_" gradientUnits="userSpaceOnUse" x1="200" y1="2" x2="1.506351e-12" y2="202" gradientTransform="matrix(1 0 0 -1 0 202)">
	<stop  offset="0.39" style="stop-color:#000000"/>
	<stop  offset="1" style="stop-color:#1F1F1F"/>
</linearGradient>
<rect class="st0" width="200" height="200"/>
<g class="st1">
	<path class="st2" d="M48.5,49.5c-0.2,0.2-2.6,0.8-7.3,1.7c-4.7,0.9-8,1.5-9.7,1.8v-9.8c9.8-2.3,16.6-5.9,20.2-10.6h9.8v98H48.5
		V49.5z"/>
	<path class="st2" d="M81.6,89.2h27V99h-27V89.2z"/>
	<path class="st2" d="M125.5,125.1c-4.1-4.4-6.1-10.6-6.1-18.6v-3.3h12.8v2.2c0.2,5,1,8.8,2.6,11.5c1.6,2.7,4.4,4,8.5,4
		c4.4,0,7.3-1.5,8.9-4.5c1.6-3,2.4-7.5,2.4-13.5c0-5.5-1-9.8-3-12.9c-2-3.1-5.3-4.8-9.8-5.1c-0.3-0.1-0.9-0.1-1.8-0.1V71.8h1.7
		c4.6-0.2,7.9-1.4,9.9-3.6c2-2.3,3-6,3-11.3c0-4.8-0.8-8.5-2.4-11c-1.6-2.5-4.5-3.7-8.7-3.7c-4.2,0-7.1,1.3-8.7,4
		c-1.6,2.7-2.4,6.6-2.6,11.7V60h-12.8v-3.3c0-8,2-14.2,6.1-18.5c4.1-4.4,10.1-6.5,18-6.5c7.9,0,13.9,2.2,18,6.6
		c4.1,4.4,6.1,10.6,6.1,18.6c0,5.7-1.3,10.4-3.8,14c-2.5,3.6-5.9,6.1-10.3,7.4c4.4,1.4,7.9,4.2,10.3,8.3c2.5,4.2,3.7,9.6,3.7,16.2
		c0,9.1-2,16.2-5.9,21.2c-3.9,5-10,7.6-18.3,7.6C135.5,131.6,129.5,129.5,125.5,125.1z"/>
</g>
<g class="st1">
	<path class="st2" d="M60,171.5l-7-21h4.2l5,15.6l4.9-15.6h4.2l-7,21V183H60V171.5z"/>
	<path class="st2" d="M74.3,150.5h12.6v3.4h-8v10.7h6.5v3.2h-6.5v11.9H87v3.2H74.3V150.5z"/>
	<path class="st2" d="M95.7,150.5h4.4L107,183h-4.3l-1.5-8.2h-6.6l-1.6,8.2h-4.2L95.7,150.5z M100.6,171.5L97.9,157l-2.7,14.6H100.6
		z"/>
	<path class="st2" d="M110.3,150.5h6.5c3.3,0,5.7,0.7,7.2,2s2.3,3.5,2.3,6.6c0,4.2-1.3,6.7-4,7.6l4.6,16.2h-4.4l-4.2-15.2h-3.5V183
		h-4.5V150.5z M116.5,164.5c1.9,0,3.3-0.4,4.2-1.2s1.3-2.2,1.3-4.2c0-1.3-0.1-2.4-0.4-3.1c-0.3-0.8-0.8-1.3-1.6-1.7
		c-0.7-0.4-1.8-0.5-3.2-0.5h-2v10.7H116.5z"/>
	<path class="st2" d="M132.5,180.8c-1.4-1.7-2.2-4-2.4-6.9l4-1.1c0.1,2.1,0.5,3.8,1.2,5s1.8,1.9,3.4,1.9c1.2,0,2.1-0.3,2.7-1
		s0.9-1.6,0.9-2.8c0-1.3-0.3-2.4-0.8-3.3c-0.6-0.9-1.5-1.9-2.7-2.9l-5.4-4.8c-1.1-1-1.9-2-2.4-3.1s-0.7-2.5-0.7-4.1
		c0-2.4,0.7-4.2,2-5.5c1.4-1.3,3.2-2,5.6-2c2.6,0,4.5,0.7,5.8,2c1.3,1.4,2.1,3.5,2.4,6.3l-3.8,1c-0.1-1.9-0.5-3.4-1.1-4.4
		c-0.6-1-1.7-1.5-3.2-1.5c-1.1,0-2,0.3-2.6,0.9c-0.6,0.6-0.9,1.5-0.9,2.7c0,1,0.2,1.8,0.5,2.4s0.9,1.3,1.6,2l5.5,4.8
		c1.4,1.3,2.5,2.6,3.4,4.1c0.8,1.5,1.3,3.1,1.3,5c0,2.4-0.7,4.3-2.2,5.6c-1.4,1.4-3.3,2.1-5.6,2.1
		C136,183.3,133.9,182.5,132.5,180.8z"/>
</g>
</svg>
