<?xml version="1.0" encoding="utf-8"?>
<!-- Generator: Adobe Illustrator 23.0.2, SVG Export Plug-In . SVG Version: 6.00 Build 0)  -->
<svg version="1.1" id="Layer_1" xmlns="http://www.w3.org/2000/svg" xmlns:xlink="http://www.w3.org/1999/xlink" x="0px" y="0px"
	 viewBox="0 0 200 200" style="enable-background:new 0 0 200 200;" xml:space="preserve">
<style type="text/css">
	.st0{fill:url(#SVGID_1_);}
	.st1{fill:#FFFFFF;}
</style>
<title>Q4 - Strength</title>
<linearGradient id="SVGID_1_" gradientUnits="userSpaceOnUse" x1="200" y1="1078" x2="-3.126388e-13" y2="878" gradientTransform="matrix(1 0 0 1 0 -878)">
	<stop  offset="0.39" style="stop-color:#000000"/>
	<stop  offset="1" style="stop-color:#1F1F1F"/>
</linearGradient>
<rect class="st0" width="200" height="200"/>
<path class="st1" d="M38.6,132.8c0-0.6-0.1-1.1-0.1-1.5V88.9c0-6.8,0-13.5,0-20.3c0-1.2,0.4-1.6,1.6-1.6c5,0.1,10,0.1,15,0
	c1.1,0,1.5,0.4,1.5,1.5c0,21,0,41.9,0,62.8c0,1.2-0.3,1.6-1.6,1.6c-5-0.1-10,0-15,0C39.5,132.9,39.1,132.9,38.6,132.8z"/>
<path class="st1" d="M161.4,67.2c0,0.5,0.1,1,0.1,1.5c0,10.5,0,21,0,31.5c0,10.3,0,20.7,0,31c0,1.7,0,1.7-1.7,1.7c-5,0-10,0-15,0
	c-1,0-1.3-0.3-1.3-1.3c0-21.1,0-42.2,0-63.3c0-1,0.3-1.3,1.3-1.3c5.2,0,10.3,0,15.5,0C160.7,67.1,161,67.1,161.4,67.2z"/>
<path class="st1" d="M176.6,75.6c0,16.2,0,32.5,0,48.7l-11.5-0.1V75.7L176.6,75.6z"/>
<path class="st1" d="M35,124.2l-11.6,0.1c0-16.2,0-32.5,0-48.6H35C34.9,91.9,34.9,108.1,35,124.2z"/>
<path class="st1" d="M129.4,109.4H140l0,0H129.4z"/>
<path class="st1" d="M140.1,90.5c0,3.6,0,7.3,0,10.9V90.5L140.1,90.5z"/>
<path class="st1" d="M86.6,109.5L86.6,109.5l-19.9,0.1L86.6,109.5z"/>
<path class="st1" d="M180.3,107.9c0-5.6,0-11.2,0-16.8c1.7,0,3.5-0.1,5.4,0c1.5,0.1,2.6,1.3,2.5,2.7c0.1,3.8,0.1,7.6,0,11.4
	c0.1,1.5-1.1,2.7-2.6,2.8c0,0,0,0-0.1,0C183.8,108,182,107.9,180.3,107.9z"/>
<path class="st1" d="M19.8,91c0,5.7,0,11.2,0,16.8c-1.8,0-3.6,0.2-5.5,0.1c-1.5,0-2.6-1.3-2.6-2.7c-0.1-3.8-0.1-7.6,0-11.4
	c0-1.5,1.1-2.8,2.6-2.8h0.1C16.3,90.9,18.1,91,19.8,91z"/>
<path class="st1" d="M140,101.9v10.9h-10.6L86.6,113H66.7H60c0-5.8,0.1-11.7,0.2-17.6c0-2.9,0-5.8,0-8.7h2.1l77.6,0.2V87L140,101.9z
	"/>
<path class="st1" d="M44.9,90.6l0.1-7.4C45,85.6,45,88.1,44.9,90.6z"/>
<path class="st1" d="M52.3,105.6h-7.5l0,0H52.3z"/>
<path class="st1" d="M137.8,105.4h-0.1c0-3.1,0-6.2,0-9.3L137.8,105.4z"/>
</svg>
