<svg id="Layer_1" data-name="Layer 1" xmlns="http://www.w3.org/2000/svg" xmlns:xlink="http://www.w3.org/1999/xlink" viewBox="0 0 200 200"><defs><style>.cls-1{fill:url(#Black_Gradient_Swatch);}.cls-2{fill:#fff;}</style><linearGradient id="Black_Gradient_Swatch" x1="200" y1="200" x2="0" gradientUnits="userSpaceOnUse"><stop offset="0.39"/><stop offset="1" stop-color="#1f1f1f"/></linearGradient></defs><title>Q4 - Strength</title><rect class="cls-1" width="200" height="200"/><path class="cls-2" d="M71.94,140.83V77.17h44.28V58.54H127.8V97.6H109.34c.36.88.6,1.53.88,2.17,4.92,11.26,9.87,22.52,14.74,33.81a5,5,0,0,1,.21,2.92c-.53,2.38-1.28,4.72-2,7.42.81-.41,1.3-.62,1.76-.9a47.48,47.48,0,0,0,12.82-69.47,6.94,6.94,0,0,1-1.26-3.65c-.17-3.14-.06-6.3-.06-9.62,12.55,9.61,22.79,30.12,18.69,52.1-4.52,24.24-24.35,43-48.13,45.54-25.54,2.75-48.69-10.55-58.57-33.64-9.45-22.07-3.25-49.08,15.14-64.52,0,1.56-.1,2.8,0,4,.47,4.91-.86,9-3.67,13.29-13.15,20.09-8.72,46.78,9.83,62C70.33,139.62,71,140.1,71.94,140.83Z"/><path class="cls-2" d="M72.09,41.73h11.7c0,.7.09,1.34.09,2,0,9.2,0,18.41,0,27.61,0,1.77-.53,2.2-2.2,2.13-3.16-.12-6.33,0-9.63,0Z"/><path class="cls-2" d="M98.37,73.4H88c-1.39,0-1.08-1-1.08-1.8,0-8,0-15.94,0-23.91V41.77H98.37Z"/><path class="cls-2" d="M101.66,73.25V41.74h11.43V73.25Z"/><path class="cls-2" d="M127.88,41.75V55.26H116.46V41.75Z"/></svg>