<svg id="Layer_1" data-name="Layer 1" xmlns="http://www.w3.org/2000/svg" xmlns:xlink="http://www.w3.org/1999/xlink" viewBox="0 0 200 200"><defs><style>.cls-1{fill:url(#Black_Gradient_Swatch);}.cls-2{fill:#fff;}</style><linearGradient id="Black_Gradient_Swatch" x1="200" y1="200" x2="0" gradientUnits="userSpaceOnUse"><stop offset="0.39"/><stop offset="1" stop-color="#1f1f1f"/></linearGradient></defs><title>Q4 - Fat Loss</title><rect class="cls-1" width="200" height="200"/><path class="cls-2" d="M64.6,40.38h72.33c-.22.48-.38.86-.57,1.23a46.59,46.59,0,0,0-5.06,21.54,32.53,32.53,0,0,0,4,15.45,82.69,82.69,0,0,1,9,23.28,76.42,76.42,0,0,1-2.45,40.51c-1.86,5.56-4.45,10.88-6.71,16.31a1.28,1.28,0,0,1-1.35.92c-9.36,0-18.73,0-28.09,0a6.6,6.6,0,0,1-.66-.08Q103,147,100.89,134.46h-.23q-.68,4-1.34,8.05-1.33,8.07-2.64,16.16c-.1.66-.34,1-1.08,1-9.32,0-18.64,0-28-.05a1.6,1.6,0,0,1-1.13-.77,95,95,0,0,1-9.59-27.34c-3.3-18.37-.22-35.66,8.85-51.93,5.75-10.33,5.54-21,1.9-31.93-.41-1.23-.9-2.43-1.41-3.63S65.22,41.71,64.6,40.38Zm70.92,45.06A26,26,0,0,1,121,98.52c-12.09,4.75-24.46,4.84-36.84,1.31-7.8-2.22-14.23-6.5-18-14.06,0,0-.14,0-.31-.08a97.79,97.79,0,0,0-6.65,19.07c16.34,6.17,29,17.42,41.53,28.79,12.56-11.41,25.22-22.65,41.54-28.8A100,100,0,0,0,135.52,85.44Zm-36.42-10a13.5,13.5,0,0,0,.68,2.23c.53,1,1.42,1.06,2,0a4.75,4.75,0,0,0,0-4.61c-.54-1.06-1.52-1-2,.08A14.12,14.12,0,0,0,99.1,75.48Z"/><path class="cls-2" d="M149.46,62.75h17.65c2.28,0,2.92.66,2.92,3q0,3.12,0,6.24c0,2.2-.69,2.9-2.86,2.9H149.46c0,1.41,0,2.73,0,4.06s-.68,1.76-1.88,1.16a3.91,3.91,0,0,1-.92-.71c-2.91-2.9-5.83-5.81-8.73-8.73-1.31-1.32-1.31-2.34,0-3.68q4.35-4.36,8.74-8.72a3.08,3.08,0,0,1,1.15-.79c1.1-.39,1.61,0,1.62,1.16C149.46,59.93,149.46,61.27,149.46,62.75Z"/><path class="cls-2" d="M50.57,74.85H36.1c-1.26,0-2.52,0-3.77,0A2.07,2.07,0,0,1,30,72.63C30,70.08,30,67.52,30,65c0-1.54.84-2.21,2.58-2.21,5.46,0,10.92-.06,16.37,0,1.33,0,1.81-.33,1.64-1.66a20.18,20.18,0,0,1,0-2.46c0-1.24.68-1.69,1.81-1.16a3.5,3.5,0,0,1,1,.8q4.34,4.31,8.64,8.63c1.31,1.32,1.32,2.39,0,3.68Q57.73,75,53.35,79.33a3.84,3.84,0,0,1-1.14.83c-1.08.44-1.63,0-1.64-1.12C50.56,77.7,50.57,76.37,50.57,74.85Z"/></svg>