<?xml version="1.0" encoding="utf-8"?>
<!-- Generator: Adobe Illustrator 23.0.2, SVG Export Plug-In . SVG Version: 6.00 Build 0)  -->
<svg version="1.1" id="Layer_1" xmlns="http://www.w3.org/2000/svg" xmlns:xlink="http://www.w3.org/1999/xlink" x="0px" y="0px"
	 viewBox="0 0 200 200" style="enable-background:new 0 0 200 200;" xml:space="preserve">
<style type="text/css">
	.st0{fill:url(#SVGID_1_);}
	.st1{fill:#FFFFFF;}
</style>
<title>Q4 - Fat Loss</title>
<linearGradient id="SVGID_1_" gradientUnits="userSpaceOnUse" x1="200" y1="2" x2="1.506351e-12" y2="202" gradientTransform="matrix(1 0 0 -1 0 202)">
	<stop  offset="0.39" style="stop-color:#000000"/>
	<stop  offset="1" style="stop-color:#1F1F1F"/>
</linearGradient>
<rect class="st0" width="200" height="200"/>
<g>
	<path class="st1" d="M79.4,112.6c8.9-6.9,16-14.6,21.3-23.3c5.4-8.6,8-17.5,8-26.6c0-8.6-3.3-12.9-9.8-12.9c-3,0-5.3,0.9-6.9,2.6
		c-1.7,1.7-2.5,4.1-2.5,7.2c0,3,0.7,6.3,2.2,10.2l-27.1,6.3c-2.1-6-3.1-11.8-3.1-17.3c0-10.8,3.3-19.3,10-25.4
		c6.6-6.1,16.1-9.1,28.2-9.1c12.3,0,21.8,3.3,28.6,9.8c6.8,6.5,10.2,15.8,10.2,27.9c0,11-2.7,21.2-8.1,30.6
		c-5.4,9.5-13.3,18.1-23.6,25.8v18.1H79.4V112.6z M78.5,147.2h29.3v28.6H78.5V147.2z"/>
</g>
</svg>
