<svg id="Layer_1" data-name="Layer 1" xmlns="http://www.w3.org/2000/svg" xmlns:xlink="http://www.w3.org/1999/xlink" viewBox="0 0 200 200"><defs><style>.cls-1{fill:url(#Black_Gradient_Swatch);}.cls-2{fill:#fff;}</style><linearGradient id="Black_Gradient_Swatch" x1="200" y1="200" x2="0" gradientUnits="userSpaceOnUse"><stop offset="0.39"/><stop offset="1" stop-color="#1f1f1f"/></linearGradient></defs><title>Q5 - Gym</title><rect class="cls-1" width="200" height="200"/><path class="cls-2" d="M66.79,79.44,79.37,66.83l53.91,53.74L120.7,133.2Z"/><path class="cls-2" d="M48.59,92.84a8.8,8.8,0,0,1-.73-.59c-3.55-3.53-7.08-7.07-10.64-10.58-.57-.57-.67-1,0-1.56a6.2,6.2,0,0,0,.45-.44l41.86-42c1.21-1.22,1.22-1.22,2.44,0,3.3,3.29,6.58,6.61,9.92,9.87.8.78.79,1.24,0,2Q70.64,70.8,49.46,92.07C49.2,92.33,48.91,92.56,48.59,92.84Z"/><path class="cls-2" d="M163.49,119.19c-.41.44-.73.82-1.08,1.17l-41,41.1c-2.08,2.09-2.08,2.09-4.14,0-3-3-6-6.08-9.12-9.07-.75-.73-.76-1.19,0-1.93q21.22-21.24,42.41-42.53c.69-.68,1.13-.76,1.84,0,3.43,3.48,6.9,6.9,10.35,10.35C163,118.54,163.21,118.85,163.49,119.19Z"/><path class="cls-2" d="M80.88,163.48c-.41-.37-.76-.66-1.08-1L51.21,134c-4.56-4.55-9.1-9.11-13.69-13.62-.83-.82-.83-1.3,0-2.11q5.1-5,10.07-10.1c.79-.81,1.25-.75,2,0Q70.76,129.33,92,150.42c.83.82.85,1.3,0,2.11-3.4,3.33-6.73,6.72-10.09,10.08C81.59,162.9,81.26,163.15,80.88,163.48Z"/><path class="cls-2" d="M119.2,36.56c.38.34.73.63,1,.94L141.5,58.7l20.9,20.84c1.17,1.16,1.17,1.17,0,2.35-3.35,3.36-6.73,6.71-10,10.1-.66.67-1.05.68-1.72,0q-21.31-21.31-42.69-42.57c-.65-.65-.69-1.08,0-1.75,3.5-3.45,7-7,10.43-10.43C118.58,37,118.86,36.84,119.2,36.56Z"/><path class="cls-2" d="M39.91,72.64,32,64.91l32.65-32.8,7.78,7.82Z"/><path class="cls-2" d="M135.1,32l32.84,32.69-7.86,7.72L127.44,39.84Z"/><path class="cls-2" d="M72.66,160.14,65,168,32.13,135.35,40,127.57Z"/><path class="cls-2" d="M160.32,127.42,168,135l-32.64,32.82-7.67-7.66Z"/><path class="cls-2" d="M102.59,84.65l18-18,12.73,12.71-18,18Z"/><path class="cls-2" d="M97.47,115.47,79.6,133.37,66.76,120.54l17.86-17.89Z"/><path class="cls-2" d="M52.06,40,40.78,51.29c-1.25-1.18-2.64-2.33-3.85-3.66a2.46,2.46,0,0,1,.18-3.44q3.77-3.88,7.63-7.67a2.56,2.56,0,0,1,3.65-.1C49.67,37.56,50.85,38.81,52.06,40Z"/><path class="cls-2" d="M159.28,51.19,148,39.9c1.12-1.17,2.28-2.49,3.57-3.67a2.52,2.52,0,0,1,3.55.12Q159,40.11,162.79,44a2.56,2.56,0,0,1,.08,3.65C161.72,48.91,160.44,50.05,159.28,51.19Z"/><path class="cls-2" d="M40.06,148,51.4,159.32c-1.18,1.21-2.34,2.54-3.63,3.72a2.52,2.52,0,0,1-3.55-.1q-3.88-3.75-7.67-7.63a2.59,2.59,0,0,1,0-3.75C37.65,150.33,38.88,149.19,40.06,148Z"/><path class="cls-2" d="M148.76,159.24,160,148c1.27,1.2,2.69,2.38,3.9,3.73a2.46,2.46,0,0,1-.26,3.44q-3.72,3.84-7.55,7.58a2.6,2.6,0,0,1-3.75.08C151.11,161.69,150,160.45,148.76,159.24Z"/></svg>