<svg id="Layer_1" data-name="Layer 1" xmlns="http://www.w3.org/2000/svg" xmlns:xlink="http://www.w3.org/1999/xlink" viewBox="0 0 200 200"><defs><style>.cls-1{fill:url(#Black_Gradient_Swatch);}.cls-2{fill:#fff;}</style><linearGradient id="Black_Gradient_Swatch" x1="200" y1="200" x2="0" gradientUnits="userSpaceOnUse"><stop offset="0.39"/><stop offset="1" stop-color="#1f1f1f"/></linearGradient></defs><title>Q5 - None</title><rect class="cls-1" width="200" height="200"/><path class="cls-2" d="M44.09,44.06v7.61h-5A4.7,4.7,0,0,1,39,51c0-2.67,0-5.35,0-8A3.78,3.78,0,0,1,43,39c2,0,4.07,0,6.16,0v5Z"/><path class="cls-2" d="M161,49.17h-5v-5h-7.61v-5a5.88,5.88,0,0,1,.77-.08h7.82a3.81,3.81,0,0,1,4.05,4C161,45.07,161,47.07,161,49.17Z"/><path class="cls-2" d="M150.88,155.86h5v-7.52H161v5c0,1.31,0,2.61,0,3.91a3.74,3.74,0,0,1-3.56,3.66c-2.14.07-4.29,0-6.52,0Z"/><path class="cls-2" d="M51.66,161c-3.07,0-6.07,0-9.06,0a3.69,3.69,0,0,1-3.55-3.54c-.06-2.15,0-4.3,0-6.52H44.1v5h7.56Z"/><path class="cls-2" d="M87.35,44v-5h7.49v5Z"/><path class="cls-2" d="M110.11,39.1v4.95h-7.48V39.1Z"/><path class="cls-2" d="M117.84,39.07h7.49v5h-7.49Z"/><path class="cls-2" d="M133.08,44.05V39.1h7.5v4.95Z"/><path class="cls-2" d="M155.93,64.35V56.87h5v7.48Z"/><path class="cls-2" d="M44.06,66.92h-5v-7.5h5Z"/><path class="cls-2" d="M160.92,72.12v7.5H156v-7.5Z"/><path class="cls-2" d="M39.12,74.62H44v7.52H39.12Z"/><path class="cls-2" d="M156,87.34h4.95v7.49H156Z"/><path class="cls-2" d="M44.06,89.89v7.49h-5V89.89Z"/><path class="cls-2" d="M160.88,110.12H156v-7.53h4.93Z"/><path class="cls-2" d="M156,117.82h4.94v7.53H156Z"/><path class="cls-2" d="M44.07,120.4v7.48h-5V120.4Z"/><path class="cls-2" d="M156,133.07h4.95v7.49H156Z"/><path class="cls-2" d="M39.05,143.09v-7.45h5v7.45Z"/><path class="cls-2" d="M44.07,105.16v7.48h-5v-7.48Z"/><path class="cls-2" d="M64.39,39.1v4.95H56.9V39.1Z"/><path class="cls-2" d="M59.42,155.93H66.9v5H59.42Z"/><path class="cls-2" d="M74.68,155.93h7.48v4.95H74.68Z"/><path class="cls-2" d="M97.42,156v4.93H89.9V156Z"/><path class="cls-2" d="M112.66,155.94v4.95h-7.52v-4.95Z"/><path class="cls-2" d="M127.9,156v4.95h-7.49V156Z"/><path class="cls-2" d="M135.64,155.93h7.49v4.95h-7.49Z"/><path class="cls-2" d="M72.06,44V39.64c0-.17,0-.33,0-.56h7.49v5Z"/></svg>