<svg id="Layer_1" data-name="Layer 1" xmlns="http://www.w3.org/2000/svg" xmlns:xlink="http://www.w3.org/1999/xlink" viewBox="0 0 200 200"><defs><style>.cls-1{fill:url(#Black_Gradient_Swatch);}.cls-2,.cls-3{fill:#fff;}.cls-3{font-size:67.98px;font-family:Oswald-Regular, Oswald;}</style><linearGradient id="Black_Gradient_Swatch" x1="200" y1="200" x2="0" gradientUnits="userSpaceOnUse"><stop offset="0.39"/><stop offset="1" stop-color="#1f1f1f"/></linearGradient></defs><title>Q6 - 3</title><rect class="cls-1" width="200" height="200"/><path class="cls-2" d="M55.59,138.56c-2.16,0-4.19.05-6.21,0a20.78,20.78,0,0,1-4-.39c-4.71-1.09-7.12-4.86-6.13-9.55q4.31-20.49,8.65-41Q51,73,54.09,58.31a4.2,4.2,0,0,1,.22-.88c2.18-4.76,5-8.86,10.61-10a12.38,12.38,0,0,1,2.36-.15q41.07,0,82.14,0c6.8,0,11.58,4.79,11.58,11.59V141c0,6.88-4.77,11.65-11.64,11.65H67.22c-6.88,0-11.6-4.75-11.63-11.65C55.58,140.26,55.59,139.47,55.59,138.56Zm95.48-69.71h-1.6q-44.91,0-89.82,0c-1.25,0-1.7.33-2,1.56-2.1,10.21-4.27,20.39-6.43,30.58q-2.94,14-5.9,27.93a3.2,3.2,0,0,0,1.83,3.83,6.73,6.73,0,0,0,2.51.5c5.72,0,11.45,0,17.17,0h65.19c3.58,0,5.77-1.73,6.5-5.17q4.33-20.46,8.65-40.94C148.48,81.1,149.75,75.06,151.07,68.85ZM61.78,138.56v2.21c0,3.83,1.93,5.76,5.77,5.76h81.8a5.28,5.28,0,0,0,4.38-1.92,5.79,5.79,0,0,0,1.08-3.83q0-29,0-58.07V81.57a.79.79,0,0,0-.33.5c-3.18,15.05-6.45,30.08-9.48,45.16-1.06,5.26-4,8.7-8.87,10.42a17.12,17.12,0,0,1-5.65.87q-33.5.09-67,0Z"/><text class="cls-3" transform="matrix(0.98, 0.22, -0.22, 0.98, 78.59, 123.43)">3</text></svg>