<?xml version="1.0" encoding="utf-8"?>
<!-- Generator: Adobe Illustrator 23.0.2, SVG Export Plug-In . SVG Version: 6.00 Build 0)  -->
<svg version="1.1" id="Layer_1" xmlns="http://www.w3.org/2000/svg" xmlns:xlink="http://www.w3.org/1999/xlink" x="0px" y="0px"
	 viewBox="0 0 200 200" style="enable-background:new 0 0 200 200;" xml:space="preserve">
<style type="text/css">
	.st0{fill:url(#SVGID_1_);}
	.st1{fill:#FFFFFF;}
	.st2{enable-background:new    ;}
</style>
<title>Q6 - 3</title>
<linearGradient id="SVGID_1_" gradientUnits="userSpaceOnUse" x1="200" y1="2" x2="1.506351e-12" y2="202" gradientTransform="matrix(1 0 0 -1 0 202)">
	<stop  offset="0.39" style="stop-color:#000000"/>
	<stop  offset="1" style="stop-color:#1F1F1F"/>
</linearGradient>
<rect class="st0" width="200" height="200"/>
<path class="st1" d="M55.6,138.6c-2.2,0-4.2,0.1-6.2,0c-1.3,0-2.7-0.1-4-0.4c-4.7-1.1-7.1-4.9-6.1-9.6c2.9-13.7,5.8-27.3,8.7-41
	c2.1-9.7,4.1-19.5,6.2-29.3c0-0.3,0.1-0.6,0.2-0.9c2.2-4.8,5-8.9,10.6-10c0.8-0.1,1.6-0.2,2.4-0.2c27.4,0,54.8,0,82.1,0
	c6.8,0,11.6,4.8,11.6,11.6V141c0,6.9-4.8,11.6-11.6,11.6H67.2c-6.9,0-11.6-4.8-11.6-11.6C55.6,140.3,55.6,139.5,55.6,138.6z
	 M151.1,68.8h-1.6c-29.9,0-59.9,0-89.8,0c-1.3,0-1.7,0.3-2,1.6c-2.1,10.2-4.3,20.4-6.4,30.6c-2,9.3-3.9,18.6-5.9,27.9
	c-0.4,1.6,0.3,3.2,1.8,3.8c0.8,0.3,1.6,0.5,2.5,0.5c5.7,0,11.5,0,17.2,0H132c3.6,0,5.8-1.7,6.5-5.2c2.9-13.6,5.8-27.3,8.6-40.9
	C148.5,81.1,149.8,75.1,151.1,68.8z M61.8,138.6v2.2c0,3.8,1.9,5.8,5.8,5.8h81.8c1.7,0.1,3.3-0.6,4.4-1.9c0.8-1.1,1.2-2.5,1.1-3.8
	c0-19.3,0-38.7,0-58.1v-1.1c-0.2,0.1-0.3,0.3-0.3,0.5c-3.2,15.1-6.4,30.1-9.5,45.2c-1.1,5.3-4,8.7-8.9,10.4
	c-1.8,0.6-3.7,0.9-5.6,0.9c-22.3,0.1-44.7,0.1-67,0L61.8,138.6z"/>
<g class="st2">
	<path class="st1" d="M85.3,121.8c-1.7-2.9-2.1-6.6-1.1-11l0.4-1.8l7.1,1.6l-0.3,1.2c-0.5,2.8-0.5,5,0,6.7s1.9,2.7,4.2,3.3
		c2.4,0.5,4.2,0.1,5.5-1.4c1.2-1.5,2.2-3.8,3-7.1c0.7-3,0.7-5.5-0.1-7.5c-0.7-2-2.3-3.3-4.8-4c-0.2-0.1-0.5-0.2-1-0.3l1.6-7.1
		l0.9,0.2c2.6,0.5,4.5,0.2,5.9-0.8c1.4-1,2.4-2.9,3.1-5.8c0.6-2.7,0.6-4.8,0-6.3c-0.6-1.6-2-2.6-4.3-3.1c-2.3-0.5-4.1-0.1-5.3,1.1
		c-1.2,1.3-2.2,3.3-2.9,6.1L97,86.8L90,85.2l0.4-1.8c1-4.4,2.9-7.5,5.7-9.4c2.8-1.9,6.3-2.4,10.7-1.4c4.4,1,7.4,2.9,9.1,5.9
		c1.7,2.9,2.1,6.6,1.1,11c-0.7,3.2-2,5.6-3.8,7.3c-1.8,1.7-4,2.6-6.6,2.8c2.3,1.3,3.8,3.3,4.7,5.9c0.8,2.6,0.8,5.7,0,9.4
		c-1.1,5-3.1,8.7-5.9,11c-2.8,2.3-6.5,2.9-11,1.9C90,126.6,87,124.7,85.3,121.8z"/>
</g>
</svg>
