<?xml version="1.0" encoding="utf-8"?>
<!-- Generator: Adobe Illustrator 23.0.2, SVG Export Plug-In . SVG Version: 6.00 Build 0)  -->
<svg version="1.1" id="Layer_1" xmlns="http://www.w3.org/2000/svg" xmlns:xlink="http://www.w3.org/1999/xlink" x="0px" y="0px"
	 viewBox="0 0 200 200" style="enable-background:new 0 0 200 200;" xml:space="preserve">
<style type="text/css">
	.st0{fill:url(#SVGID_1_);}
	.st1{fill:#FFFFFF;}
	.st2{enable-background:new    ;}
</style>
<title>Q6 - 5</title>
<linearGradient id="SVGID_1_" gradientUnits="userSpaceOnUse" x1="200" y1="2" x2="1.506351e-12" y2="202" gradientTransform="matrix(1 0 0 -1 0 202)">
	<stop  offset="0.39" style="stop-color:#000000"/>
	<stop  offset="1" style="stop-color:#1F1F1F"/>
</linearGradient>
<rect class="st0" width="200" height="200"/>
<path class="st1" d="M55.6,138.6c-2.2,0-4.2,0.1-6.2,0c-1.3,0-2.7-0.1-4-0.4c-4.7-1.1-7.1-4.9-6.1-9.6c2.9-13.7,5.8-27.3,8.7-41
	c2.1-9.7,4.1-19.5,6.2-29.3c0-0.3,0.1-0.6,0.2-0.9c2.2-4.8,5-8.9,10.6-10c0.8-0.1,1.6-0.2,2.4-0.2c27.4,0,54.8,0,82.1,0
	c6.8,0,11.6,4.8,11.6,11.6V141c0,6.9-4.8,11.6-11.6,11.6H67.2c-6.9,0-11.6-4.8-11.6-11.6C55.6,140.3,55.6,139.5,55.6,138.6z
	 M151.1,68.8h-1.6c-29.9,0-59.9,0-89.8,0c-1.3,0-1.7,0.3-2,1.6c-2.1,10.2-4.3,20.4-6.4,30.6c-2,9.3-3.9,18.6-5.9,27.9
	c-0.4,1.6,0.3,3.2,1.8,3.8c0.8,0.3,1.6,0.5,2.5,0.5c5.7,0,11.5,0,17.2,0H132c3.6,0,5.8-1.7,6.5-5.2c2.9-13.6,5.8-27.3,8.6-40.9
	C148.5,81.1,149.8,75.1,151.1,68.8z M61.8,138.6v2.2c0,3.8,1.9,5.8,5.8,5.8h81.8c1.7,0.1,3.3-0.6,4.4-1.9c0.8-1.1,1.2-2.5,1.1-3.8
	c0-19.3,0-38.7,0-58.1v-1.1c-0.2,0.1-0.3,0.3-0.3,0.5c-3.2,15.1-6.4,30.1-9.5,45.2c-1.1,5.3-4,8.7-8.9,10.4
	c-1.8,0.6-3.7,0.9-5.6,0.9c-22.3,0.1-44.7,0.1-67,0L61.8,138.6z"/>
<g class="st2">
	<path class="st1" d="M82.5,119l18.5-18.3c0.9-0.9,1.5-1.5,1.8-1.7c2.1-2.1,3.7-3.9,4.8-5.4c1.1-1.5,1.9-3.4,2.4-5.7
		c0.6-2.6,0.6-4.6,0.1-6.2c-0.5-1.6-1.8-2.6-3.7-3c-4.3-1-7.1,1.9-8.6,8.5l-0.4,1.8l-7.1-1.6l0.4-1.9c1.1-5.1,3.1-8.7,5.7-11
		c2.7-2.2,6.4-2.8,11-1.8c4.3,1,7.2,2.9,8.8,5.8c1.6,2.9,2,6.6,1,11c-0.5,2.2-1.2,4.1-2.1,5.7c-0.9,1.6-1.8,2.9-2.8,4
		c-1,1.1-2.5,2.6-4.5,4.6l-16.6,16.1l17.1,3.8l-1.3,6l-25.4-5.7L82.5,119z"/>
</g>
</svg>
