<svg id="Layer_1" data-name="Layer 1" xmlns="http://www.w3.org/2000/svg" xmlns:xlink="http://www.w3.org/1999/xlink" viewBox="0 0 200 200"><defs><style>.cls-1{fill:url(#Black_Gradient_Swatch);}.cls-2{fill:#fff;}</style><linearGradient id="Black_Gradient_Swatch" x1="200" y1="200" x2="0" gradientUnits="userSpaceOnUse"><stop offset="0.39"/><stop offset="1" stop-color="#1f1f1f"/></linearGradient></defs><title>Q5 - Some</title><rect class="cls-1" width="200" height="200"/><path class="cls-2" d="M46.22,128.76c0-.51-.07-.93-.07-1.34V90.26c0-5.92,0-11.84,0-17.76,0-1.07.31-1.38,1.38-1.37q6.55.09,13.12,0c1,0,1.3.33,1.3,1.33q0,27.53,0,55c0,1.07-.3,1.39-1.37,1.38-4.38-.06-8.75,0-13.12,0C47.05,128.84,46.68,128.79,46.22,128.76Z"/><path class="cls-2" d="M153.78,71.27c0,.46.07.88.07,1.29q0,13.8,0,27.61,0,13.59,0,27.16c0,1.51,0,1.52-1.53,1.52-4.37,0-8.74,0-13.11,0-.87,0-1.13-.24-1.13-1.11q0-27.73,0-55.47c0-.84.25-1.15,1.13-1.14,4.52,0,9,0,13.58,0A8.75,8.75,0,0,1,153.78,71.27Z"/><path class="cls-2" d="M167.09,78.65q0,21.33,0,42.63L157,121.17V78.76Z"/><path class="cls-2" d="M43.05,121.23l-10.14.09c0-14.19,0-28.42,0-42.59l10.15,0C43,92.87,43,107.13,43.05,121.23Z"/><path class="cls-2" d="M125.78,108.24l9.29,0v0Z"/><path class="cls-2" d="M135.08,91.68c0,3.16,0,6.35,0,9.52L135,91.68Z"/><path class="cls-2" d="M88.27,108.32v.05H70.82Z"/><path class="cls-2" d="M170.3,106.88q0-7.38,0-14.69c1.49,0,3.1-.13,4.72,0a2.31,2.31,0,0,1,2.22,2.39q.08,5,0,10a2.35,2.35,0,0,1-2.32,2.43C173.37,107,171.79,106.89,170.3,106.88Z"/><path class="cls-2" d="M29.75,92.12c0,5,0,9.85,0,14.72-1.56,0-3.17.14-4.78.06a2.31,2.31,0,0,1-2.24-2.37q-.09-5,0-10a2.39,2.39,0,0,1,2.41-2.46C26.69,92.05,28.23,92.11,29.75,92.12Z"/><path class="cls-2" d="M135.07,101.2v7l-9.29,0-37.51.08-17.45,0H65c0-3.71.09-7.54.15-11.33,0-1.88,0-3.74,0-5.57h1.87l67.92.16v.05Z"/><path class="cls-2" d="M51.75,91.76l.06-6.46C51.81,87.43,51.79,89.59,51.75,91.76Z"/><path class="cls-2" d="M58.18,104.94H51.62v0Z"/><path class="cls-2" d="M133.1,104.76H133c0-2.69,0-5.41,0-8.15Z"/></svg>